<svg width="74" height="38" viewBox="0 0 74 38" fill="none" xmlns="http://www.w3.org/2000/svg">
<rect x="0.5" y="0.578125" width="72.9531" height="36" rx="11.5" stroke="#81818B" stroke-opacity="0.2"/>
<path d="M23.3956 18.1793C23.8204 18.2585 24.1804 18.4745 24.4756 18.8273C24.7708 19.1801 24.9184 19.5905 24.9184 20.0585C24.9184 20.4401 24.8212 20.7857 24.6268 21.0953C24.4396 21.3977 24.1624 21.6389 23.7952 21.8189C23.428 21.9917 22.9888 22.0781 22.4776 22.0781H19.864V14.5289H22.402C23.1652 14.5289 23.7448 14.7053 24.1408 15.0581C24.544 15.4109 24.7456 15.8681 24.7456 16.4297C24.7456 16.8977 24.6196 17.2793 24.3676 17.5745C24.1156 17.8625 23.7916 18.0641 23.3956 18.1793ZM20.62 17.8661H22.3804C22.8916 17.8661 23.284 17.7473 23.5576 17.5097C23.8384 17.2649 23.9788 16.9301 23.9788 16.5053C23.9788 16.0877 23.8384 15.7601 23.5576 15.5225C23.284 15.2849 22.8808 15.1661 22.348 15.1661H20.62V17.8661ZM22.4236 21.4409C22.9708 21.4409 23.3956 21.3113 23.698 21.0521C24.0076 20.7929 24.1624 20.4365 24.1624 19.9829C24.1624 19.5293 24.0004 19.1693 23.6764 18.9029C23.3596 18.6293 22.9312 18.4925 22.3912 18.4925H20.62V21.4409H22.4236ZM29.0641 21.4625H31.7749V22.0781H28.3081V14.5289H29.0641V21.4625ZM38.245 22.1537C37.5466 22.1537 36.913 21.9917 36.3442 21.6677C35.7754 21.3365 35.3254 20.8793 34.9942 20.2961C34.6702 19.7057 34.5082 19.0397 34.5082 18.2981C34.5082 17.5565 34.6702 16.8941 34.9942 16.3109C35.3254 15.7205 35.7754 15.2633 36.3442 14.9393C36.913 14.6081 37.5466 14.4425 38.245 14.4425C38.9506 14.4425 39.5878 14.6081 40.1566 14.9393C40.7254 15.2633 41.1718 15.7205 41.4958 16.3109C41.8198 16.8941 41.9818 17.5565 41.9818 18.2981C41.9818 19.0397 41.8198 19.7057 41.4958 20.2961C41.1718 20.8793 40.7254 21.3365 40.1566 21.6677C39.5878 21.9917 38.9506 22.1537 38.245 22.1537ZM38.245 21.4949C38.8066 21.4949 39.3106 21.3653 39.757 21.1061C40.2034 20.8469 40.5562 20.4761 40.8154 19.9937C41.0746 19.5041 41.2042 18.9389 41.2042 18.2981C41.2042 17.6573 41.0746 17.0957 40.8154 16.6133C40.5562 16.1309 40.2034 15.7601 39.757 15.5009C39.3106 15.2417 38.8066 15.1121 38.245 15.1121C37.6834 15.1121 37.1794 15.2417 36.733 15.5009C36.2866 15.7601 35.9338 16.1309 35.6746 16.6133C35.4154 17.0957 35.2858 17.6573 35.2858 18.2981C35.2858 18.9389 35.4154 19.5041 35.6746 19.9937C35.9338 20.4761 36.2866 20.8469 36.733 21.1061C37.1794 21.3653 37.6834 21.4949 38.245 21.4949ZM51.3052 16.7321C51.0892 16.2353 50.758 15.8465 50.3116 15.5657C49.8724 15.2777 49.354 15.1337 48.7564 15.1337C48.1948 15.1337 47.6908 15.2633 47.2444 15.5225C46.798 15.7817 46.4452 16.1525 46.186 16.6349C45.9268 17.1101 45.7972 17.6645 45.7972 18.2981C45.7972 18.9317 45.9268 19.4897 46.186 19.9721C46.4452 20.4545 46.798 20.8253 47.2444 21.0845C47.6908 21.3437 48.1948 21.4733 48.7564 21.4733C49.282 21.4733 49.7536 21.3617 50.1712 21.1385C50.596 20.9081 50.9344 20.5841 51.1864 20.1665C51.4456 19.7417 51.5932 19.2485 51.6292 18.6869H48.454V18.0713H52.4284V18.6221C52.3924 19.2845 52.2124 19.8857 51.8884 20.4257C51.5644 20.9585 51.1288 21.3797 50.5816 21.6893C50.0416 21.9989 49.4332 22.1537 48.7564 22.1537C48.058 22.1537 47.4244 21.9917 46.8556 21.6677C46.2868 21.3365 45.8368 20.8793 45.5056 20.2961C45.1816 19.7057 45.0196 19.0397 45.0196 18.2981C45.0196 17.5565 45.1816 16.8941 45.5056 16.3109C45.8368 15.7205 46.2868 15.2633 46.8556 14.9393C47.4244 14.6081 48.058 14.4425 48.7564 14.4425C49.5628 14.4425 50.2684 14.6441 50.8732 15.0473C51.478 15.4505 51.9172 16.0121 52.1908 16.7321H51.3052Z" fill="#9C9C9C"/>
</svg>
