<svg width="152" height="38" viewBox="0 0 152 38" fill="none" xmlns="http://www.w3.org/2000/svg">
<rect x="0.5" y="0.75" width="150.25" height="36" rx="11.5" stroke="#81818B" stroke-opacity="0.2"/>
<path d="M29.0224 14.7008L26.884 22.25H26.0416L24.1408 15.8132L22.1968 22.25L21.376 22.2608L19.2808 14.7008H20.0908L21.8188 21.3212L23.752 14.7008H24.5944L26.4736 21.3212L28.2124 14.7008H29.0224ZM37.784 14.7008V22.25H37.028V18.7184H32.9348V22.25H32.1788V14.7008H32.9348V18.092H37.028V14.7008H37.784ZM46.4985 14.7008L44.0793 19.3124V22.25H43.3233V19.3124L40.8825 14.7008H41.7357L43.7013 18.6212L45.6561 14.7008H46.4985ZM54.2231 18.47C54.2231 17.7284 54.3851 17.066 54.7091 16.4828C55.0331 15.8924 55.4759 15.4352 56.0375 15.1112C56.5991 14.78 57.2255 14.6144 57.9167 14.6144C58.7591 14.6144 59.4791 14.816 60.0767 15.2192C60.6815 15.6152 61.1207 16.1768 61.3943 16.904H60.5087C60.2927 16.3928 59.9615 15.9932 59.5151 15.7052C59.0759 15.4172 58.5431 15.2732 57.9167 15.2732C57.3623 15.2732 56.8619 15.4028 56.4155 15.662C55.9763 15.9212 55.6307 16.2956 55.3787 16.7852C55.1267 17.2676 55.0007 17.8292 55.0007 18.47C55.0007 19.1108 55.1267 19.6724 55.3787 20.1548C55.6307 20.6372 55.9763 21.008 56.4155 21.2672C56.8619 21.5264 57.3623 21.656 57.9167 21.656C58.5431 21.656 59.0759 21.5156 59.5151 21.2348C59.9615 20.9468 60.2927 20.5508 60.5087 20.0468H61.3943C61.1207 20.7668 60.6815 21.3248 60.0767 21.7208C59.4719 22.1168 58.7519 22.3148 57.9167 22.3148C57.2255 22.3148 56.5991 22.1528 56.0375 21.8288C55.4759 21.4976 55.0331 21.0404 54.7091 20.4572C54.3851 19.874 54.2231 19.2116 54.2231 18.47ZM70.5059 14.7008V22.25H69.7499V18.7184H65.6567V22.25H64.9007V14.7008H65.6567V18.092H69.7499V14.7008H70.5059ZM77.622 22.3256C76.9236 22.3256 76.29 22.1636 75.7212 21.8396C75.1524 21.5084 74.7024 21.0512 74.3712 20.468C74.0472 19.8776 73.8852 19.2116 73.8852 18.47C73.8852 17.7284 74.0472 17.066 74.3712 16.4828C74.7024 15.8924 75.1524 15.4352 75.7212 15.1112C76.29 14.78 76.9236 14.6144 77.622 14.6144C78.3276 14.6144 78.9648 14.78 79.5336 15.1112C80.1024 15.4352 80.5488 15.8924 80.8728 16.4828C81.1968 17.066 81.3588 17.7284 81.3588 18.47C81.3588 19.2116 81.1968 19.8776 80.8728 20.468C80.5488 21.0512 80.1024 21.5084 79.5336 21.8396C78.9648 22.1636 78.3276 22.3256 77.622 22.3256ZM77.622 21.6668C78.1836 21.6668 78.6876 21.5372 79.134 21.278C79.5804 21.0188 79.9332 20.648 80.1924 20.1656C80.4516 19.676 80.5812 19.1108 80.5812 18.47C80.5812 17.8292 80.4516 17.2676 80.1924 16.7852C79.9332 16.3028 79.5804 15.932 79.134 15.6728C78.6876 15.4136 78.1836 15.284 77.622 15.284C77.0604 15.284 76.5564 15.4136 76.11 15.6728C75.6636 15.932 75.3108 16.3028 75.0516 16.7852C74.7924 17.2676 74.6628 17.8292 74.6628 18.47C74.6628 19.1108 74.7924 19.676 75.0516 20.1656C75.3108 20.648 75.6636 21.0188 76.11 21.278C76.5564 21.5372 77.0604 21.6668 77.622 21.6668ZM88.1333 22.3256C87.4349 22.3256 86.8013 22.1636 86.2325 21.8396C85.6637 21.5084 85.2137 21.0512 84.8825 20.468C84.5585 19.8776 84.3965 19.2116 84.3965 18.47C84.3965 17.7284 84.5585 17.066 84.8825 16.4828C85.2137 15.8924 85.6637 15.4352 86.2325 15.1112C86.8013 14.78 87.4349 14.6144 88.1333 14.6144C88.8389 14.6144 89.4761 14.78 90.0449 15.1112C90.6137 15.4352 91.0601 15.8924 91.3841 16.4828C91.7081 17.066 91.8701 17.7284 91.8701 18.47C91.8701 19.2116 91.7081 19.8776 91.3841 20.468C91.0601 21.0512 90.6137 21.5084 90.0449 21.8396C89.4761 22.1636 88.8389 22.3256 88.1333 22.3256ZM88.1333 21.6668C88.6949 21.6668 89.1989 21.5372 89.6453 21.278C90.0917 21.0188 90.4445 20.648 90.7037 20.1656C90.9629 19.676 91.0925 19.1108 91.0925 18.47C91.0925 17.8292 90.9629 17.2676 90.7037 16.7852C90.4445 16.3028 90.0917 15.932 89.6453 15.6728C89.1989 15.4136 88.6949 15.284 88.1333 15.284C87.5717 15.284 87.0677 15.4136 86.6213 15.6728C86.1749 15.932 85.8221 16.3028 85.5629 16.7852C85.3037 17.2676 85.1741 17.8292 85.1741 18.47C85.1741 19.1108 85.3037 19.676 85.5629 20.1656C85.8221 20.648 86.1749 21.0188 86.6213 21.278C87.0677 21.5372 87.5717 21.6668 88.1333 21.6668ZM97.5431 22.3256C97.0463 22.3256 96.6071 22.2392 96.2255 22.0664C95.8511 21.8936 95.5559 21.6524 95.3399 21.3428C95.1239 21.0332 95.0087 20.6876 94.9943 20.306H95.7935C95.8295 20.6732 95.9915 20.9972 96.2795 21.278C96.5675 21.5516 96.9887 21.6884 97.5431 21.6884C98.0543 21.6884 98.4575 21.5588 98.7527 21.2996C99.0551 21.0332 99.2063 20.6984 99.2063 20.2952C99.2063 19.9712 99.1235 19.712 98.9579 19.5176C98.7923 19.316 98.5871 19.1684 98.3423 19.0748C98.0975 18.974 97.7591 18.866 97.3271 18.7508C96.8231 18.614 96.4235 18.4808 96.1283 18.3512C95.8331 18.2216 95.5811 18.02 95.3723 17.7464C95.1635 17.4728 95.0591 17.102 95.0591 16.634C95.0591 16.2452 95.1599 15.8996 95.3615 15.5972C95.5631 15.2876 95.8475 15.0464 96.2147 14.8736C96.5819 14.7008 97.0031 14.6144 97.4783 14.6144C98.1767 14.6144 98.7383 14.7872 99.1631 15.1328C99.5951 15.4712 99.8435 15.9104 99.9083 16.4504H99.0875C99.0371 16.1408 98.8679 15.8672 98.5799 15.6296C98.2919 15.3848 97.9031 15.2624 97.4135 15.2624C96.9599 15.2624 96.5819 15.3848 96.2795 15.6296C95.9771 15.8672 95.8259 16.1948 95.8259 16.6124C95.8259 16.9292 95.9087 17.1848 96.0743 17.3792C96.2399 17.5736 96.4451 17.7212 96.6899 17.822C96.9419 17.9228 97.2803 18.0308 97.7051 18.146C98.1947 18.2828 98.5907 18.4196 98.8931 18.5564C99.1955 18.686 99.4511 18.8876 99.6599 19.1612C99.8687 19.4348 99.9731 19.802 99.9731 20.2628C99.9731 20.6156 99.8795 20.9504 99.6923 21.2672C99.5051 21.584 99.2279 21.8396 98.8607 22.034C98.4935 22.2284 98.0543 22.3256 97.5431 22.3256ZM104.19 15.3164V18.1352H107.052V18.7616H104.19V21.6236H107.376V22.25H103.434V14.69H107.376V15.3164H104.19ZM116.553 14.7008V19.4528C116.553 20.2016 116.729 20.756 117.082 21.116C117.442 21.476 117.932 21.656 118.551 21.656C119.17 21.656 119.652 21.4796 119.998 21.1268C120.351 20.7668 120.527 20.2088 120.527 19.4528V14.7008H121.283V19.442C121.283 20.3996 121.028 21.1196 120.516 21.602C120.012 22.0844 119.354 22.3256 118.54 22.3256C117.726 22.3256 117.064 22.0844 116.553 21.602C116.049 21.1196 115.797 20.3996 115.797 19.442V14.7008H116.553ZM127.259 22.3256C126.762 22.3256 126.323 22.2392 125.941 22.0664C125.567 21.8936 125.272 21.6524 125.056 21.3428C124.84 21.0332 124.725 20.6876 124.71 20.306H125.509C125.545 20.6732 125.707 20.9972 125.995 21.278C126.283 21.5516 126.705 21.6884 127.259 21.6884C127.77 21.6884 128.173 21.5588 128.469 21.2996C128.771 21.0332 128.922 20.6984 128.922 20.2952C128.922 19.9712 128.839 19.712 128.674 19.5176C128.508 19.316 128.303 19.1684 128.058 19.0748C127.813 18.974 127.475 18.866 127.043 18.7508C126.539 18.614 126.139 18.4808 125.844 18.3512C125.549 18.2216 125.297 18.02 125.088 17.7464C124.879 17.4728 124.775 17.102 124.775 16.634C124.775 16.2452 124.876 15.8996 125.077 15.5972C125.279 15.2876 125.563 15.0464 125.931 14.8736C126.298 14.7008 126.719 14.6144 127.194 14.6144C127.893 14.6144 128.454 14.7872 128.879 15.1328C129.311 15.4712 129.559 15.9104 129.624 16.4504H128.803C128.753 16.1408 128.584 15.8672 128.296 15.6296C128.008 15.3848 127.619 15.2624 127.129 15.2624C126.676 15.2624 126.298 15.3848 125.995 15.6296C125.693 15.8672 125.542 16.1948 125.542 16.6124C125.542 16.9292 125.625 17.1848 125.79 17.3792C125.956 17.5736 126.161 17.7212 126.406 17.822C126.658 17.9228 126.996 18.0308 127.421 18.146C127.911 18.2828 128.307 18.4196 128.609 18.5564C128.911 18.686 129.167 18.8876 129.376 19.1612C129.585 19.4348 129.689 19.802 129.689 20.2628C129.689 20.6156 129.595 20.9504 129.408 21.2672C129.221 21.584 128.944 21.8396 128.577 22.034C128.209 22.2284 127.77 22.3256 127.259 22.3256Z" fill="#9C9C9C"/>
</svg>
