<svg width="133" height="38" viewBox="0 0 133 38" fill="none" xmlns="http://www.w3.org/2000/svg">
<rect x="0.5" y="0.546875" width="131.547" height="36" rx="11.5" stroke="#81818B" stroke-opacity="0.2"/>
<path d="M24.2812 14.4977V15.1241H22.186V22.0469H21.43V15.1241H19.324V14.4977H24.2812ZM28.2309 15.1133V17.9321H31.0929V18.5585H28.2309V21.4205H31.4169V22.0469H27.4749V14.4869H31.4169V15.1133H28.2309ZM37.1962 22.1225C36.6994 22.1225 36.2602 22.0361 35.8786 21.8633C35.5042 21.6905 35.209 21.4493 34.993 21.1397C34.777 20.8301 34.6618 20.4845 34.6474 20.1029H35.4466C35.4826 20.4701 35.6446 20.7941 35.9326 21.0749C36.2206 21.3485 36.6418 21.4853 37.1962 21.4853C37.7074 21.4853 38.1106 21.3557 38.4058 21.0965C38.7082 20.8301 38.8594 20.4953 38.8594 20.0921C38.8594 19.7681 38.7766 19.5089 38.611 19.3145C38.4454 19.1129 38.2402 18.9653 37.9954 18.8717C37.7506 18.7709 37.4122 18.6629 36.9802 18.5477C36.4762 18.4109 36.0766 18.2777 35.7814 18.1481C35.4862 18.0185 35.2342 17.8169 35.0254 17.5433C34.8166 17.2697 34.7122 16.8989 34.7122 16.4309C34.7122 16.0421 34.813 15.6965 35.0146 15.3941C35.2162 15.0845 35.5006 14.8433 35.8678 14.6705C36.235 14.4977 36.6562 14.4113 37.1314 14.4113C37.8298 14.4113 38.3914 14.5841 38.8162 14.9297C39.2482 15.2681 39.4966 15.7073 39.5614 16.2473H38.7406C38.6902 15.9377 38.521 15.6641 38.233 15.4265C37.945 15.1817 37.5562 15.0593 37.0666 15.0593C36.613 15.0593 36.235 15.1817 35.9326 15.4265C35.6302 15.6641 35.479 15.9917 35.479 16.4093C35.479 16.7261 35.5618 16.9817 35.7274 17.1761C35.893 17.3705 36.0982 17.5181 36.343 17.6189C36.595 17.7197 36.9334 17.8277 37.3582 17.9429C37.8478 18.0797 38.2438 18.2165 38.5462 18.3533C38.8486 18.4829 39.1042 18.6845 39.313 18.9581C39.5218 19.2317 39.6262 19.5989 39.6262 20.0597C39.6262 20.4125 39.5326 20.7473 39.3454 21.0641C39.1582 21.3809 38.881 21.6365 38.5138 21.8309C38.1466 22.0253 37.7074 22.1225 37.1962 22.1225ZM47.5042 14.4977V15.1241H45.409V22.0469H44.653V15.1241H42.547V14.4977H47.5042ZM51.454 14.4977V22.0469H50.698V14.4977H51.454ZM62.5424 14.5949V22.0469H61.7864V16.0961L59.1296 22.0469H58.5788L55.922 16.1177V22.0469H55.166V14.5949H55.9652L58.8488 21.0533L61.7324 14.5949H62.5424ZM69.6486 22.1225C68.9502 22.1225 68.3166 21.9605 67.7478 21.6365C67.179 21.3053 66.729 20.8481 66.3978 20.2649C66.0738 19.6745 65.9118 19.0085 65.9118 18.2669C65.9118 17.5253 66.0738 16.8629 66.3978 16.2797C66.729 15.6893 67.179 15.2321 67.7478 14.9081C68.3166 14.5769 68.9502 14.4113 69.6486 14.4113C70.3542 14.4113 70.9914 14.5769 71.5602 14.9081C72.129 15.2321 72.5754 15.6893 72.8994 16.2797C73.2234 16.8629 73.3854 17.5253 73.3854 18.2669C73.3854 19.0085 73.2234 19.6745 72.8994 20.2649C72.5754 20.8481 72.129 21.3053 71.5602 21.6365C70.9914 21.9605 70.3542 22.1225 69.6486 22.1225ZM69.6486 21.4637C70.2102 21.4637 70.7142 21.3341 71.1606 21.0749C71.607 20.8157 71.9598 20.4449 72.219 19.9625C72.4782 19.4729 72.6078 18.9077 72.6078 18.2669C72.6078 17.6261 72.4782 17.0645 72.219 16.5821C71.9598 16.0997 71.607 15.7289 71.1606 15.4697C70.7142 15.2105 70.2102 15.0809 69.6486 15.0809C69.087 15.0809 68.583 15.2105 68.1366 15.4697C67.6902 15.7289 67.3374 16.0997 67.0782 16.5821C66.819 17.0645 66.6894 17.6261 66.6894 18.2669C66.6894 18.9077 66.819 19.4729 67.0782 19.9625C67.3374 20.4449 67.6902 20.8157 68.1366 21.0749C68.583 21.3341 69.087 21.4637 69.6486 21.4637ZM82.4603 22.0469H81.7043L77.5247 15.6965V22.0469H76.7687V14.4977H77.5247L81.7043 20.8373V14.4977H82.4603V22.0469ZM86.9286 14.4977V22.0469H86.1726V14.4977H86.9286ZM95.0146 20.2541H91.5802L90.9214 22.0469H90.1222L92.8762 14.5949H93.7294L96.4726 22.0469H95.6734L95.0146 20.2541ZM94.7878 19.6277L93.2974 15.5453L91.807 19.6277H94.7878ZM100.442 21.4313H103.153V22.0469H99.6859V14.4977H100.442V21.4313ZM108.521 22.1225C108.024 22.1225 107.585 22.0361 107.204 21.8633C106.829 21.6905 106.534 21.4493 106.318 21.1397C106.102 20.8301 105.987 20.4845 105.972 20.1029H106.772C106.808 20.4701 106.97 20.7941 107.258 21.0749C107.546 21.3485 107.967 21.4853 108.521 21.4853C109.032 21.4853 109.436 21.3557 109.731 21.0965C110.033 20.8301 110.184 20.4953 110.184 20.0921C110.184 19.7681 110.102 19.5089 109.936 19.3145C109.77 19.1129 109.565 18.9653 109.32 18.8717C109.076 18.7709 108.737 18.6629 108.305 18.5477C107.801 18.4109 107.402 18.2777 107.106 18.1481C106.811 18.0185 106.559 17.8169 106.35 17.5433C106.142 17.2697 106.037 16.8989 106.037 16.4309C106.037 16.0421 106.138 15.6965 106.34 15.3941C106.541 15.0845 106.826 14.8433 107.193 14.6705C107.56 14.4977 107.981 14.4113 108.456 14.4113C109.155 14.4113 109.716 14.5841 110.141 14.9297C110.573 15.2681 110.822 15.7073 110.886 16.2473H110.066C110.015 15.9377 109.846 15.6641 109.558 15.4265C109.27 15.1817 108.881 15.0593 108.392 15.0593C107.938 15.0593 107.56 15.1817 107.258 15.4265C106.955 15.6641 106.804 15.9917 106.804 16.4093C106.804 16.7261 106.887 16.9817 107.052 17.1761C107.218 17.3705 107.423 17.5181 107.668 17.6189C107.92 17.7197 108.258 17.8277 108.683 17.9429C109.173 18.0797 109.569 18.2165 109.871 18.3533C110.174 18.4829 110.429 18.6845 110.638 18.9581C110.847 19.2317 110.951 19.5989 110.951 20.0597C110.951 20.4125 110.858 20.7473 110.67 21.0641C110.483 21.3809 110.206 21.6365 109.839 21.8309C109.472 22.0253 109.032 22.1225 108.521 22.1225Z" fill="#9C9C9C"/>
</svg>
